<svg xmlns="http://www.w3.org/2000/svg" id="Livello_1" viewBox="0 0 283.46 68.7"><path d="m119.78,31.38c.68,1,1.03,2.19,1.03,3.58,0,2.36-.77,4.19-2.3,5.47-1.53,1.28-3.73,1.92-6.59,1.92h-11.65v-25.76h11.16c2.91,0,5.14.62,6.68,1.85,1.54,1.23,2.31,3,2.31,5.32,0,1.17-.32,2.22-.95,3.15s-1.54,1.66-2.71,2.18c1.32.52,2.32,1.28,3,2.28Zm-14.61-10.53v6.27h6.31c2.71,0,4.07-1.02,4.07-3.06s-1.29-3.21-3.88-3.21h-6.49Zm10.79,13.77c0-2.16-1.38-3.25-4.14-3.25h-6.64v6.72h6.83c2.64,0,3.96-1.16,3.96-3.47Z" fill="#575756"></path><path d="m132.1,20.86v6.38h11.61v4.26h-11.61v6.61h13.51v4.26h-18.4v-25.76h18.4v4.26h-13.51Z" fill="#575756"></path><path d="m162.02,32.24h-5.11v10.12h-4.89v-25.76h11.2c2.81,0,5.03.67,6.66,2.02,1.63,1.34,2.44,3.28,2.44,5.82,0,1.84-.44,3.37-1.32,4.57-.88,1.21-2.18,2.08-3.9,2.63l6.38,10.71h-5.82l-5.64-10.12Zm-5.11-4.18h6.46c2.74,0,4.11-1.21,4.11-3.62,0-1.19-.36-2.09-1.08-2.69-.72-.6-1.73-.9-3.02-.9h-6.46v7.2Z" fill="#575756"></path><path d="m198.06,20.86h-7.73v21.5h-4.89v-21.5h-7.73v-4.26h20.34v4.26Z" fill="#575756"></path><path d="m204.91,39.93c-1.87-1.89-2.8-4.72-2.8-8.47v-4.03c0-3.76.95-6.58,2.86-8.47,1.9-1.89,4.54-2.84,7.89-2.84s5.91.95,7.8,2.84c1.89,1.89,2.84,4.72,2.84,8.47v4.03c0,3.73-.97,6.55-2.89,8.45-1.93,1.9-4.56,2.86-7.89,2.86s-5.93-.95-7.8-2.84Zm13.7-8.55v-3.7c0-4.85-1.92-7.28-5.75-7.28-1.97,0-3.43.6-4.39,1.79-.96,1.19-1.44,3.02-1.44,5.49v3.7c0,2.36.48,4.12,1.44,5.26.96,1.14,2.42,1.72,4.39,1.72,3.83,0,5.75-2.33,5.75-6.98Z" fill="#575756"></path><path d="m248.01,38.07v4.29h-18.81v-4.29l12.84-17.21h-12.58v-4.26h18.18v4.26l-12.8,17.21h13.18Z" fill="#575756"></path><path d="m271.84,38.07v4.29h-18.81v-4.29l12.84-17.21h-12.58v-4.26h18.18v4.26l-12.8,17.21h13.18Z" fill="#575756"></path><path d="m278.17,16.6h4.89v25.76h-4.89v-25.76Z" fill="#575756"></path><path d="m105.79,57.22c-.13.18-.29.35-.48.51-.19.16-.39.3-.62.42-.23.12-.47.21-.74.28-.26.07-.54.1-.83.1-.47,0-.91-.08-1.3-.24-.39-.16-.73-.39-1.01-.68-.28-.29-.5-.63-.66-1.03s-.23-.83-.23-1.3.08-.89.23-1.29.37-.75.66-1.05c.28-.3.62-.53,1.02-.7.39-.17.83-.26,1.31-.26.58,0,1.08.11,1.52.32.43.21.79.52,1.08.91l-.96.92c-.19-.26-.41-.47-.66-.63-.26-.16-.56-.24-.91-.24-.28,0-.53.05-.76.15-.22.1-.41.24-.57.42-.16.18-.28.39-.36.63-.08.24-.13.49-.13.76s.04.53.13.77c.08.24.2.44.36.62.16.17.34.31.56.41.22.1.46.15.74.15.22,0,.42-.02.58-.07.16-.05.31-.11.44-.19s.24-.17.34-.27c.1-.1.2-.21.29-.31l.96.88Z" fill="#009fe3"></path><path d="m112.44,58.53c-.46,0-.89-.08-1.28-.25-.4-.17-.74-.4-1.03-.69-.29-.29-.52-.64-.68-1.04s-.25-.83-.25-1.29.08-.9.25-1.3c.16-.4.39-.74.68-1.04.29-.29.63-.52,1.03-.69.39-.17.82-.25,1.28-.25s.89.08,1.28.25c.4.17.74.4,1.03.69s.52.64.68,1.04c.16.4.25.83.25,1.3s-.08.89-.25,1.29c-.17.4-.39.75-.68,1.04-.29.29-.63.52-1.03.69-.39.17-.82.25-1.28.25Zm0-1.33c.27,0,.52-.05.74-.16.22-.11.4-.25.55-.43s.27-.39.35-.63c.08-.24.12-.49.12-.76s-.04-.52-.12-.76c-.08-.24-.2-.44-.35-.62s-.34-.32-.55-.42c-.22-.1-.46-.15-.74-.15s-.52.05-.74.15-.41.24-.56.42c-.15.18-.27.38-.35.62-.08.24-.12.49-.12.76s.04.52.12.76c.08.24.2.44.35.63.15.18.34.32.56.43.22.11.47.16.74.16Z" fill="#009fe3"></path><path d="m119.73,52.15h1.34l2.7,4.04v-4.04h1.39v6.22h-1.28l-2.76-4.12v4.12h-1.39v-6.22Z" fill="#009fe3"></path><path d="m129.92,56.51c.08.09.18.18.28.27.11.09.23.17.36.25.13.07.28.14.44.18.16.05.33.07.51.07.11,0,.21-.02.32-.05.11-.03.2-.08.29-.14.09-.06.16-.13.21-.21.05-.08.08-.18.08-.28,0-.23-.11-.41-.34-.54-.22-.13-.58-.25-1.06-.38-.24-.06-.46-.14-.66-.24s-.38-.23-.52-.38c-.15-.15-.26-.32-.34-.51-.08-.19-.12-.41-.12-.64,0-.26.05-.51.14-.74.09-.23.23-.43.42-.61.19-.18.43-.32.71-.42.28-.1.62-.15,1-.15.32,0,.6.03.84.1.24.07.45.14.62.23.17.09.31.18.42.28.11.1.19.17.25.23l-.81.9c-.07-.06-.15-.12-.24-.18-.09-.07-.19-.13-.3-.18-.11-.06-.24-.1-.37-.14-.13-.04-.28-.06-.42-.06-.1,0-.2.02-.29.05-.1.03-.18.07-.26.13-.08.05-.14.12-.19.19s-.07.15-.07.23c0,.21.11.38.34.51.22.13.53.24.92.33.23.06.46.13.68.23s.42.22.59.38c.17.16.31.35.42.57.11.23.16.5.16.83,0,.28-.06.54-.19.77-.12.24-.29.44-.51.62-.21.17-.47.31-.76.41s-.6.14-.94.14c-.31,0-.59-.03-.85-.09-.25-.06-.49-.14-.69-.23-.21-.1-.39-.21-.55-.33-.17-.12-.31-.25-.42-.38l.91-.98Z" fill="#009fe3"></path><path d="m138,52.15h1.42v3.69c0,.21.02.39.06.56.04.16.11.31.2.42.09.12.22.21.37.28s.34.1.56.1.4-.03.56-.1c.15-.07.28-.16.37-.28.09-.12.16-.26.2-.42s.06-.35.06-.56v-3.69h1.43v3.86c0,.37-.06.72-.18,1.03-.12.31-.3.58-.52.8s-.5.39-.83.52c-.32.12-.68.19-1.08.19s-.76-.06-1.08-.18c-.32-.12-.6-.29-.83-.52s-.4-.49-.52-.8c-.12-.31-.18-.65-.18-1.03v-3.86Z" fill="#009fe3"></path><path d="m147.47,52.15h1.41v4.97h2.98v1.25h-4.39v-6.22Z" fill="#009fe3"></path><path d="m155.9,53.39h-2.02v-1.24h5.44v1.24h-2.01v4.98h-1.42v-4.98Z" fill="#009fe3"></path><path d="m163.21,52.15h1.41v6.22h-1.41v-6.22Z" fill="#009fe3"></path><path d="m168.91,52.15h1.34l2.7,4.04v-4.04h1.39v6.22h-1.28l-2.76-4.12v4.12h-1.39v-6.22Z" fill="#009fe3"></path><path d="m181.85,54.95h2.4v2.7c-.32.28-.7.5-1.13.65-.43.15-.93.23-1.48.23-.51,0-.97-.08-1.37-.24-.4-.16-.74-.38-1.02-.67-.28-.29-.49-.63-.64-1.03-.15-.4-.22-.84-.22-1.32s.08-.9.23-1.3c.16-.4.38-.74.66-1.04.29-.3.63-.53,1.02-.7s.83-.25,1.31-.25c.57,0,1.06.1,1.49.31.43.21.78.5,1.06.87l-.95.91c-.2-.24-.42-.43-.66-.58s-.53-.22-.88-.22c-.29,0-.54.05-.77.16-.22.11-.41.25-.57.43-.16.18-.27.39-.35.63-.08.24-.12.5-.12.77,0,.3.05.57.14.81.09.24.22.45.39.62.17.17.37.3.59.4.23.09.47.14.74.14.25,0,.48-.03.68-.09s.39-.15.55-.28v-.78h-1.1v-1.14Z" fill="#009fe3"></path><path d="m193.23,52.15h4.25v1.23h-2.85v1.21h2.21v1.19h-2.21v1.34h3.05v1.24h-4.46v-6.22Z" fill="#009fe3"></path><path d="m201.72,52.15h1.34l2.7,4.04v-4.04h1.39v6.22h-1.28l-2.76-4.12v4.12h-1.39v-6.22Z" fill="#009fe3"></path><path d="m214.66,54.95h2.4v2.7c-.32.28-.7.5-1.13.65-.43.15-.93.23-1.48.23-.51,0-.97-.08-1.37-.24-.4-.16-.74-.38-1.02-.67-.28-.29-.49-.63-.64-1.03-.15-.4-.22-.84-.22-1.32s.08-.9.23-1.3.38-.74.66-1.04c.29-.3.63-.53,1.02-.7s.83-.25,1.31-.25c.57,0,1.06.1,1.49.31.43.21.78.5,1.06.87l-.95.91c-.2-.24-.42-.43-.66-.58s-.53-.22-.88-.22c-.29,0-.54.05-.77.16-.22.11-.41.25-.57.43-.16.18-.27.39-.35.63-.08.24-.12.5-.12.77,0,.3.05.57.14.81.09.24.22.45.39.62.17.17.37.3.59.4.23.09.47.14.74.14.25,0,.48-.03.68-.09.21-.06.39-.15.55-.28v-.78h-1.1v-1.14Z" fill="#009fe3"></path><path d="m221.27,52.15h1.41v6.22h-1.41v-6.22Z" fill="#009fe3"></path><path d="m226.97,52.15h1.34l2.7,4.04v-4.04h1.39v6.22h-1.28l-2.76-4.12v4.12h-1.39v-6.22Z" fill="#009fe3"></path><path d="m236.7,52.15h4.26v1.23h-2.85v1.21h2.21v1.19h-2.21v1.34h3.05v1.24h-4.46v-6.22Z" fill="#009fe3"></path><path d="m245.19,52.15h4.26v1.23h-2.85v1.21h2.21v1.19h-2.21v1.34h3.05v1.24h-4.46v-6.22Z" fill="#009fe3"></path><path d="m253.68,52.15h2.31c.36,0,.68.05.95.15.27.1.5.24.69.42s.32.38.41.62c.09.24.14.49.14.76,0,.4-.09.76-.27,1.06-.18.3-.43.54-.75.72l1.38,2.49h-1.55l-1.16-2.29h-.78v2.29h-1.37v-6.22Zm2.24,2.81c.26,0,.47-.08.62-.23.15-.16.22-.35.22-.59,0-.25-.07-.46-.22-.61-.15-.15-.35-.22-.62-.22h-.87v1.65h.87Z" fill="#009fe3"></path><path d="m262.42,52.15h1.41v6.22h-1.41v-6.22Z" fill="#009fe3"></path><path d="m268.12,52.15h1.34l2.7,4.04v-4.04h1.39v6.22h-1.28l-2.76-4.12v4.12h-1.39v-6.22Z" fill="#009fe3"></path><path d="m281.07,54.95h2.4v2.7c-.32.28-.7.5-1.13.65-.43.15-.93.23-1.48.23-.51,0-.97-.08-1.37-.24-.4-.16-.74-.38-1.02-.67-.28-.29-.49-.63-.64-1.03-.15-.4-.22-.84-.22-1.32s.08-.9.23-1.3c.16-.4.38-.74.66-1.04s.63-.53,1.02-.7.83-.25,1.31-.25c.57,0,1.06.1,1.49.31.43.21.78.5,1.06.87l-.95.91c-.2-.24-.42-.43-.66-.58s-.53-.22-.88-.22c-.29,0-.54.05-.77.16-.22.11-.41.25-.57.43s-.27.39-.35.63c-.08.24-.12.5-.12.77,0,.3.05.57.14.81.09.24.22.45.39.62.17.17.37.3.59.4.23.09.47.14.74.14.25,0,.48-.03.68-.09s.39-.15.55-.28v-.78h-1.1v-1.14Z" fill="#009fe3"></path><rect width="68.7" height="68.7" fill="#009fe3"></rect><path d="m61.42,61.42h-14.77v-4.85h9.93V11.94H12.07v10.18h18.51c6.43,0,11.28,4.73,11.28,11.01,0,3.95-1.66,6.78-4.05,8.59,2.54,1.93,4.02,4.93,4.02,8.6,0,3.26-1.28,6.19-3.6,8.24-2.05,1.82-4.84,2.86-7.64,2.86H7.22v-28.36h4.85v23.51h18.51c4.2,0,6.4-3.15,6.4-6.26,0-5.69-5.31-6.13-6.94-6.13h-8.82v-4.85h8.83c1.16,0,6.97-.3,6.97-6.21,0-3.57-2.7-6.17-6.43-6.17H7.22V7.09h54.2v54.32Z" fill="#fff"></path></svg>